<svg xmlns="http://www.w3.org/2000/svg" version="1.1" xmlns:xlink="http://www.w3.org/1999/xlink" xmlns:svgjs="http://svgjs.dev/svgjs" viewBox="0 0 7.199894498759598 6.024690730540478"><g transform="matrix(1,0,0,1,0.5484085530907361,4.396282177449742)"><rect width="7.199894498759598" height="6.024690730540478" x="-0.5484085530907361" y="-4.396282177449742" fill="#fffdfa"></rect><g><path d=" M 0.0915 1.0709999999999997 L 0.0915 0.005999999999999783 L 0.8220000000000001 0.005999999999999783 L 0.8220000000000001 0.2609999999999997 L 0.384 0.2609999999999997 L 0.384 0.4379999999999997 L 0.741 0.4379999999999997 L 0.741 0.6749999999999997 L 0.384 0.6749999999999997 L 0.384 1.0709999999999997 L 0.0915 1.0709999999999997 Z M 0.950982421875 1.0709999999999997 L 0.950982421875 0.005999999999999783 L 1.243482421875 0.005999999999999783 L 1.243482421875 1.0709999999999997 L 0.950982421875 1.0709999999999997 Z M 2.270915771484375 0.2609999999999997 L 1.964915771484375 0.2609999999999997 L 1.964915771484375 1.0709999999999997 L 1.672415771484375 1.0709999999999997 L 1.672415771484375 0.2609999999999997 L 1.364915771484375 0.2609999999999997 L 1.364915771484375 0.005999999999999783 L 2.270915771484375 0.005999999999999783 L 2.270915771484375 0.2609999999999997 Z M 2.644300048828125 0.5294999999999997 Q 2.644300048828125 0.4319999999999997 2.681050048828125 0.3382499999999997 Q 2.717800048828125 0.24449999999999972 2.788300048828125 0.1679999999999997 Q 2.858800048828125 0.09149999999999969 2.960050048828125 0.045749999999999735 Q 3.0613000488281252 -2.220446049250313e-16 3.188800048828125 -2.220446049250313e-16 Q 3.341800048828125 -2.220446049250313e-16 3.455800048828125 0.06374999999999975 Q 3.569800048828125 0.12749999999999972 3.625300048828125 0.2324999999999997 L 3.4018000488281253 0.39149999999999974 Q 3.382300048828125 0.33899999999999975 3.345550048828125 0.31049999999999967 Q 3.3088000488281253 0.2819999999999997 3.266050048828125 0.2707499999999997 Q 3.223300048828125 0.25949999999999973 3.182800048828125 0.25949999999999973 Q 3.1198000488281252 0.25949999999999973 3.0740500488281253 0.28424999999999967 Q 3.028300048828125 0.3089999999999997 2.999050048828125 0.3494999999999997 Q 2.969800048828125 0.3899999999999997 2.955550048828125 0.43949999999999967 Q 2.941300048828125 0.48899999999999977 2.941300048828125 0.5384999999999998 Q 2.941300048828125 0.5939999999999996 2.9578000488281253 0.6449999999999998 Q 2.974300048828125 0.6959999999999997 3.005800048828125 0.7357499999999997 Q 3.037300048828125 0.7754999999999997 3.083050048828125 0.7979999999999997 Q 3.128800048828125 0.8204999999999998 3.185800048828125 0.8204999999999998 Q 3.226300048828125 0.8204999999999998 3.268300048828125 0.8077499999999997 Q 3.3103000488281253 0.7949999999999997 3.344800048828125 0.7664999999999997 Q 3.3793000488281253 0.7379999999999998 3.397300048828125 0.6899999999999997 L 3.6358000488281252 0.8324999999999997 Q 3.604300048828125 0.9104999999999998 3.530800048828125 0.9659999999999997 Q 3.457300048828125 1.0214999999999996 3.364300048828125 1.0507499999999996 Q 3.271300048828125 1.0799999999999996 3.179800048828125 1.0799999999999996 Q 3.0613000488281252 1.0799999999999996 2.963050048828125 1.0327499999999998 Q 2.864800048828125 0.9854999999999997 2.793550048828125 0.9067499999999997 Q 2.7223000488281253 0.8279999999999997 2.683300048828125 0.7297499999999997 Q 2.644300048828125 0.6314999999999997 2.644300048828125 0.5294999999999997 Z M 3.7542685546875 1.0709999999999997 L 3.7542685546875 0.005999999999999783 L 4.0467685546875005 0.005999999999999783 L 4.0467685546875005 1.0709999999999997 L 3.7542685546875 1.0709999999999997 Z M 5.074201904296875 0.2609999999999997 L 4.768201904296875 0.2609999999999997 L 4.768201904296875 1.0709999999999997 L 4.475701904296875 1.0709999999999997 L 4.475701904296875 0.2609999999999997 L 4.1682019042968745 0.2609999999999997 L 4.1682019042968745 0.005999999999999783 L 5.074201904296875 0.005999999999999783 L 5.074201904296875 0.2609999999999997 Z M 5.4116455078125 0.005999999999999783 L 5.6021455078125 0.4409999999999997 L 5.7971455078125 0.005999999999999783 L 6.1151455078125 0.005999999999999783 L 5.7476455078125 0.7184999999999997 L 5.7476455078125 1.0709999999999997 L 5.4566455078125 1.0709999999999997 L 5.4566455078125 0.7154999999999998 L 5.095145507812499 0.005999999999999783 L 5.4116455078125 0.005999999999999783 Z" fill="#000000" fill-rule="nonzero"></path></g><g></g><g clip-path="url(&quot;#SvgjsClipPath1019&quot;)"><g clip-path="url(&quot;#SvgjsClipPath1008&quot;)"><path d=" M 3.829574694693196 -2.181040321190569 C 3.829594394269514 -1.5068423909386217 3.4234809594142206 -0.8990199269765706 2.8006078138668173 -0.6410046287914466 C 2.177734668319416 -0.3829893306063168 1.4607687179457733 -0.5255940138102186 0.984036003388414 -1.0023211563272412 C 0.5073032888310547 -1.4790482988442633 0.3646902257073884 -2.196012582399135 0.6226982437062162 -2.8188887435981265 C 0.8807062617050438 -3.4417649047971146 1.4885239789539215 -3.8478854438803167 2.1627219093882792 -3.8478736243590124 C 3.0832872181097866 -3.8478628651894304 3.829553175913895 -3.1016056297252272 3.829574694693196 -2.181040321190566 Z" fill="#cf9645" transform="matrix(1,0,0,1,0,0)" fill-rule="nonzero"></path></g><g clip-path="url(&quot;#SvgjsClipPath1008&quot;)"><path d=" M 2.831787242603672 -0.26949187932980356 C 2.8222399161657954 -0.26950109330633376 2.813349790511255 -0.2743551610327404 2.808179936213862 -0.2823816256064178 C 2.803010081916472 -0.29040809018009206 2.8022671798510554 -0.3005097932131098 2.8062071950674077 -0.3092062181741895 C 2.8751837055793223 -0.4609818162939687 2.860844851819466 -0.6270865271044674 2.845648783976141 -0.8029517891835658 C 2.83661881289232 -0.9075221662977331 2.8272966097345864 -1.015618810437077 2.838440392819692 -1.119750839440378 L 2.8424926775779116 -1.1575948930117397 L 2.809421747880418 -1.1387459242445366 C 2.6947206588707027 -1.0733638682417177 2.5132055766960075 -0.9954158330607643 2.2997884931194608 -0.9954060919916321 C 2.2532821721932597 -0.9954153730016051 2.2068488910150976 -0.9990893868321984 2.160919811597379 -1.0063940179706532 L 2.1578513748213224 -1.0068908124962976 L 2.154782938045266 -1.0064037590397796 C 2.108743181023993 -0.9990942215967387 2.0621994579836507 -0.9954202314225205 2.0155830601727547 -0.9954158330607581 C 1.8018737445222959 -0.9954158330607581 1.6206021890758597 -1.0734417967947572 1.5061738500017938 -1.138892040281486 L 1.4730542149586487 -1.1578286786708607 L 1.4771162407859983 -1.1199066965464595 C 1.4882600238711026 -1.0157941496814198 1.4789475617825014 -0.9077169876803342 1.4699370728369388 -0.8031855748426899 C 1.454741004993614 -0.6272034199340295 1.4403924101646282 -0.4611084501926537 1.5094955545752355 -0.3092159592433128 C 1.5134565855339297 -0.3005193541126565 1.5127234912000305 -0.2904053540075835 1.5075497383660004 -0.28237086655245314 C 1.5023759855319716 -0.2743363790973232 1.493471690773983 -0.26948416720059853 1.4839155070389711 -0.26949187932979735 L 1.0136264304954439 -0.26949187932979735 C 0.9668205933241756 -0.26949187932980045 0.9611123268137979 -0.29147747235697175 0.9592420415407737 -0.2987150867208097 C 0.9492964099587005 -0.33709489909433854 1.0021709331981659 -0.3682078738966328 1.1334318397294554 -0.44112951740633255 C 1.1653435822004388 -0.45885826322354717 1.2090420183191293 -0.4831427485654771 1.2311932095215161 -0.497910209367066 L 1.2412849571405447 -0.5046315470670013 L 1.2396971628722993 -0.5166617674429688 C 1.2228451132768174 -0.6446204515390717 1.1759321243451148 -0.7732512694051681 1.1305971886125286 -0.8976544632686978 C 1.0482364491155323 -1.1233647760877292 0.963216397745952 -1.3563321854088657 1.0614355977871373 -1.5928745671008304 C 1.0643660530334198 -1.5999561111829248 1.0700687811093839 -1.6055285917657969 1.0772161297782823 -1.6082946795341546 C 1.077625254681755 -1.608431054501981 1.0781902366913156 -1.6085382062624136 1.0788039240465277 -1.6086843222993692 L 1.1009940795254343 -1.6142659549110512 L 1.1009940795254343 -1.6143341423949642 C 1.1796929494723836 -1.6324015383794501 1.260199994700743 -1.6414088625644578 1.340945835413023 -1.6411805289181638 C 1.4772159830986034 -1.6397524690560896 1.6125595920234492 -1.6185792937453698 1.7427551959702798 -1.5783214098201008 L 1.7551945412497219 -1.574600321412317 L 1.7634160035957263 -1.5846531047548273 C 1.8027448076618495 -1.6327578674833272 1.8479520256358308 -1.6757397410080306 1.8979791325621964 -1.7125923067126694 L 1.9076520142086217 -1.7196643229012962 L 1.9057038003825537 -1.731480239756395 C 1.8988168645074048 -1.7734350245007522 1.860398087857358 -1.8174646569698796 1.8410425834953799 -1.8348719475057895 L 1.8401366640662582 -1.835690197312735 L 1.839162557153225 -1.8363915542901217 C 1.7859020425014505 -1.8739092657908436 1.750186805844053 -1.9314713829594596 1.7402225179963948 -1.995852855953734 C 1.739248411083363 -2.001424747496287 1.7385080898294567 -2.0073570585966607 1.7378846614051138 -2.014000467743551 L 1.7331992071534228 -2.0632610543356584 L 1.7030018928493789 -2.0240337689477936 C 1.5981708395068948 -1.8891590775649993 1.4562883701072948 -1.7877767361423262 1.294724462389575 -1.7322984895633406 L 1.2937503554765435 -1.7322984895633406 L 1.2908280347374421 -1.7309639630924805 C 1.288074614297775 -1.730073132079315 1.2851985418852894 -1.7296195343731164 1.2823045992483977 -1.7296196955524938 C 1.2807255145393925 -1.7296226241664083 1.279149102034986 -1.7297496491409348 1.277589921789316 -1.7299995972485762 C 0.906338295093921 -1.7913683327697032 0.8359006242124564 -2.248282921397277 0.829101357959482 -2.30017359665458 L 0.828799384816442 -2.302414042554557 L 0.8280103582168854 -2.304518113486708 C 0.8153103682070734 -2.3387100442583355 0.8059001073377611 -2.3740352176429584 0.799907373775865 -2.4100138921682537 L 0.797267544041544 -2.4263788883072177 L 0.6668833337319855 -2.4263788883072177 L 0.6668833337319855 -1.9920343568546341 C 0.6668833337319855 -1.9765188869670565 0.6543055602476752 -1.963941113482743 0.6387900903600943 -1.963941113482743 C 0.6232746204725134 -1.963941113482743 0.6106968469882029 -1.9765188869670565 0.6106968469882029 -1.9920343568546341 L 0.6106968469882029 -2.9168806832962053 C 0.6106968469882029 -2.932396153183786 0.6232746204725134 -2.9449739266680965 0.6387900903600943 -2.9449739266680965 C 0.6543055602476752 -2.9449739266680965 0.6668833337319855 -2.932396153183786 0.6668833337319855 -2.9168806832962053 L 0.6668833337319855 -2.482545892912751 L 0.7944036697172238 -2.482545892912751 L 0.7963518835432917 -2.4998752548956187 C 0.797729225291438 -2.5137173699016087 0.8006268007027543 -2.527365701433151 0.8049922118618966 -2.540573441722164 C 0.8075329715592773 -2.547869559426932 0.8129605935926367 -2.553800847878705 0.8200031993917448 -2.5569774021376537 C 0.8644833008708094 -2.57523375184401 0.9123016698487703 -2.583945197368833 0.9603622644907717 -2.582547708604789 C 1.0203362328653207 -2.5818853458229887 1.0799957916573026 -2.573777169072785 1.1379711779442017 -2.5584093392998115 C 1.1474915299241693 -2.555674305424292 1.1548838424416044 -2.5481526274378012 1.157453316204874 -2.538586263619578 C 1.1605961226965522 -2.525699034571166 1.163009249278913 -2.51264473524287 1.164681189499581 -2.499485612130404 L 1.1669021532613 -2.482545892912751 L 1.7847392039220384 -2.482545892912751 L 1.7847392039220384 -2.48081198260755 L 1.8042213421827122 -2.48081198260755 C 1.805020109851401 -2.48081198260755 1.8058188775200867 -2.4808509468840727 1.8066176451887757 -2.480928875437118 C 1.807747609207895 -2.480626902294078 1.8088873142961435 -2.480334670220164 1.810027019384392 -2.4801106256301697 L 1.829324077331589 -2.4762726443928207 L 1.8295091576450657 -2.477246751305854 C 1.838736176775235 -2.4759855152155286 1.8480363843734668 -2.475334695929437 1.8573491332195673 -2.4752985374797873 C 1.880730216808411 -2.474248694105153 1.9038393257302901 -2.480662205291028 1.9233351355084676 -2.4936117474448203 C 1.9371094739125632 -2.5038877773588544 1.9476198022697513 -2.5179263556280325 1.9536006372964232 -2.5340371843357197 L 1.9570781989759543 -2.5430281911430193 L 1.9520420662355698 -2.5512593945581514 C 1.9164209288035081 -2.6091559045197648 1.8914350722164657 -2.6729533009465847 1.8782632086423974 -2.739641930469733 C 1.8759448341893776 -2.752305320339171 1.8741817006767862 -2.7649005227246928 1.8730127723811458 -2.7768430734784886 C 1.8603493825117092 -2.9190626827814046 1.933621704510102 -3.03344231650982 2.064171512994874 -3.0751438334567895 L 2.069655734915256 -3.0768972259002485 L 2.073308635839131 -3.081358635561945 C 2.1030870841705713 -3.117673341279839 2.116003741837398 -3.1502377353825564 2.1078602080444373 -3.1684437935871568 C 2.101460325625806 -3.182850834830922 2.0787051881373397 -3.1918223594999633 2.048439686349383 -3.1918223594999633 C 2.0130093630453123 -3.19059265710081 1.978194251773457 -3.1822061484276323 1.9460902729969345 -3.167167713531083 C 1.90051504125246 -3.1460647507791064 1.8510020955237345 -3.134809243708912 1.8007827447797022 -3.1341357481101095 C 1.6539166455016152 -3.1341357481101095 1.5518594642230765 -3.239738678552091 1.530409629998075 -3.3391073247506555 C 1.5286214230521002 -3.3474161637329205 1.530689471161431 -3.3560879262648293 1.5360349588200672 -3.3626955166733077 C 1.541380446478702 -3.369303107081789 1.5494290734411433 -3.3731366292757676 1.557928150291278 -3.3731231381537916 C 1.5601895793517915 -3.373122133911501 1.5624427748088663 -3.3728507039798052 1.564639746922081 -3.372314629415975 C 1.5897114952801663 -3.3660320224998976 1.615455097408823 -3.362826338880317 1.6413019609778259 -3.3627683816682437 C 1.7348162246290602 -3.3627683816682437 1.8145760986682582 -3.405112809177819 1.8916474376274834 -3.446044781663491 C 1.9629228404541565 -3.4839375405805018 2.0299706192782647 -3.5195898535975383 2.102833816373185 -3.5195898535975383 C 2.133912397096027 -3.519537649373724 2.164611379488257 -3.5127584846107722 2.192821812999233 -3.4997180725716497 C 2.29303793221214 -3.4539350476590696 2.35874144349626 -3.3570990794343905 2.352575346736759 -3.264101092447063 C 2.349818624172875 -3.2224385397766135 2.3311449946500176 -3.1609723935641894 2.257609663785106 -3.104746942543887 L 2.2294287507910417 -3.08318021548932 L 2.2627529482859248 -3.0709746558690068 C 2.3055290627247444 -3.0557153194338187 2.3439677869750306 -3.0303123364510203 2.3747752432847964 -2.9969425304784476 C 2.426821775648187 -2.9393338476416364 2.450200341560994 -2.8632950620102298 2.442397745187594 -2.7770184127228346 C 2.436260871635481 -2.706200840145286 2.406745432170561 -2.6219113689604834 2.363446379886214 -2.551473698079017 L 2.3583907650075697 -2.5432522357330143 L 2.3618683266870995 -2.5342612289257143 C 2.3679897785361836 -2.517646969978574 2.3789234430587682 -2.5032337955924113 2.393273533563305 -2.492861685121782 C 2.4125708139687836 -2.4804615234262473 2.4352325335566096 -2.474336734348455 2.458149053971349 -2.4753277606871746 C 2.4676685943637597 -2.475365879824394 2.4771747239200907 -2.47604605136745 2.4866027169010594 -2.4773636441354125 L 2.4867001275923664 -2.4769155549554203 L 2.50536401604609 -2.4801301077684306 C 2.506513462203469 -2.4803541523584283 2.5076726494299804 -2.4806463844323363 2.50881235451823 -2.480948357575376 C 2.5096403453943097 -2.480870429022337 2.5104196309247357 -2.4808314647458114 2.5112086575242936 -2.4808314647458114 L 2.5306907957849676 -2.4808314647458114 L 2.5306907957849676 -2.482565375051009 L 3.148498623238314 -2.482565375051009 L 3.150729328069162 -2.499505094268666 C 3.15241212288467 -2.512653563378816 3.154828428592586 -2.525697711688985 3.157966942433004 -2.538576522550446 C 3.1605304860826853 -2.5481503676258397 3.1679238308586393 -2.555680489280154 3.177449080693675 -2.5584190803689437 C 3.235505729834292 -2.573746308994238 3.2952306963943396 -2.5818568645736573 3.3552722976679736 -2.582567190743047 C 3.403341079481473 -2.583972056297516 3.451169179425742 -2.5752672890095716 3.4956605859743863 -2.5570163664141736 C 3.5027677677695346 -2.553831857109615 3.5082279235437075 -2.547831685929207 3.5107300199190186 -2.540456548892599 C 3.5150553594128278 -2.527291362553452 3.5179106320593316 -2.5136879812032866 3.5192437143389323 -2.499894737033874 L 3.5211919281650004 -2.482536151843613 L 3.648566148113283 -2.482536151843613 L 3.648566148113283 -2.9168806832962053 C 3.648851302102749 -2.9321949393522053 3.6613473513865094 -2.944460476192861 3.6766642620197407 -2.944460476192861 C 3.6919811726529734 -2.944460476192861 3.7044772219367337 -2.9321949393522053 3.704762375926198 -2.9168806832962053 L 3.704762375926198 -1.9920246157855142 C 3.7044772219367337 -1.976710359729514 3.6919811726529734 -1.9644448228888614 3.6766642620197407 -1.9644448228888614 C 3.6613473513865094 -1.9644448228888614 3.648851302102749 -1.976710359729514 3.648566148113283 -1.9920246157855142 L 3.648566148113283 -2.4263691472381006 L 3.518308571702416 -2.4263691472381006 L 3.5156395187607044 -2.410013892168263 C 3.5096210117380964 -2.3740325694093043 3.500194689945376 -2.3387050637563735 3.487487828974032 -2.304508372417585 L 3.486698802374474 -2.302404301485434 L 3.486396829231434 -2.300173596654589 C 3.479578080840198 -2.2482731803281535 3.4090819635439527 -1.7913585917005803 3.0378303368485575 -1.7299801151103273 C 3.0362941323613097 -1.729730723803355 3.03474016017303 -1.7296069272768269 3.0331838468733845 -1.7296099544833803 C 3.0300536902459805 -1.7296106742734598 3.0269467975846975 -1.7301477087419554 3.023998018683476 -1.7311977487516255 C 2.8612393189996554 -1.7864142410252035 2.718253242384998 -1.8881620195475748 2.6127495621389194 -2.0238389475651957 L 2.5826788817335724 -2.0629493401234953 L 2.5779154989288378 -2.0138543517065983 C 2.5772433651588442 -2.007035603315366 2.5764640796284186 -2.0009961404545527 2.5755289369919048 -1.9954437310502644 C 2.5654826113326537 -1.9313183531813323 2.5298366744154457 -1.8740176853558392 2.476754496010288 -1.8366643042257746 L 2.4756050498529105 -1.835855795487955 L 2.474572496525095 -1.8348816885749217 C 2.4487878865370942 -1.8108212478229926 2.4164085727478537 -1.7693145522586247 2.409998949260094 -1.7314802397564013 L 2.407992289019245 -1.7196156175556503 L 2.417733358149582 -1.712504637090504 C 2.4676868524720836 -1.675649781081285 2.512844837813566 -1.632703882557979 2.5521601121482287 -1.5846628458239689 L 2.5603815744942335 -1.5746198035505903 L 2.5728111787045447 -1.5783408919583803 C 2.7029904941503293 -1.618579007375545 2.8383133528096662 -1.639742172963711 2.9745620928470236 -1.6411707878490498 C 3.0566701178980185 -1.6414165043066484 3.1385272640615804 -1.6320964274810779 3.218478463870651 -1.613398999758454 L 3.2366650399369914 -1.6086940633685045 C 3.2372699939555916 -1.6085724920768611 3.2378682471522775 -1.6084196774016255 3.2384573966569734 -1.6082362331193827 C 3.245537489555962 -1.6054561993731125 3.2511840648876484 -1.599918617712214 3.2541015536802935 -1.592894049239101 C 3.3523110126523497 -1.3563224443397424 3.2673007023519003 -1.1233745171568703 3.1850958199609885 -0.8980733292413086 C 3.139819330643183 -0.7740013317282095 3.0931109041632188 -0.6459744601481936 3.075888693940782 -0.5166422853047106 L 3.0742814175342765 -0.5046023238596167 L 3.0843829062224377 -0.4978712450905558 C 3.1060178207609144 -0.48342523957026495 3.14725176638963 -0.4604850217683212 3.1803811425019055 -0.44203543683546487 L 3.182037124254064 -0.4411197763372128 C 3.3133175129236134 -0.368198132827513 3.3661920361630804 -0.3370851580252183 3.356236663511876 -0.2987053456516926 C 3.354376119307981 -0.2914872134261133 3.3486678527976035 -0.2694821382606807 3.3018522745572048 -0.2694821382606807 Z M 2.4517589126218455 -1.8754922057792958 L 2.4246008118864664 -1.8685176002819754 L 2.4406151295367398 -1.845509194996119 L 2.4741828537598805 -1.8651179671554867 L 2.4671498018477775 -1.8791840709796923 Z M 2.660363908048007 -2.3910382895023687 C 2.757082983443121 -2.3218085111930655 2.895299013333468 -2.20712690432161 3.0045645857684558 -2.053880404763153 L 3.021728349576108 -2.029810222942089 L 3.03707053345639 -2.055078556266184 C 3.0619880162224216 -2.093309201291861 3.0907079408068765 -2.1289219077765837 3.122791941803354 -2.161373102616417 C 3.1569636123125746 -2.198252790343872 3.1892552564796404 -2.2330965946230856 3.2141242059693886 -2.277623021617857 L 3.2225794539745216 -2.2927606430464023 L 3.208532832288576 -2.3029108370802103 C 3.177527009246714 -2.325315296079987 3.157450665769091 -2.3622436891530905 3.150476060271768 -2.4097119190252227 L 3.148031051920054 -2.4263594061689684 L 2.6110351339719813 -2.4263594061689684 Z M 1.1650318679882743 -2.4096826958178355 C 1.158125449974864 -2.3622923944987484 1.1380393654281102 -2.325373742494768 1.1069653549023368 -2.3029108370802165 L 1.09289925107813 -2.2927606430464054 L 1.101364240152392 -2.2776230216178632 C 1.12620396643475 -2.2331355588996145 1.1584663873944268 -2.198311236758662 1.192618575765386 -2.1614412901003335 C 1.2247297916351236 -2.1289707620941627 1.2534697366555236 -2.0933314026094036 1.2783984305271325 -2.0550688151970524 L 1.2937698376148032 -2.0298199640112213 L 1.310914119284196 -2.053880404763153 C 1.420160209580922 -2.20712690432161 1.5583372751947493 -2.321759805847414 1.6550953148663847 -2.3910382895023687 L 1.7044533121498011 -2.4263594061689715 L 1.1674671352708574 -2.4263594061689715 Z M 3.984175202860771 -1.9639411134827551 C 3.9686740037052957 -1.9639571981892865 3.9561087977102987 -1.976513690449198 3.9560819594888796 -1.9920148747163882 L 3.9560819594888796 -2.9168806832962053 C 3.9560819594888796 -2.932390773339861 3.9686553717479875 -2.9449641855989643 3.9841654617916404 -2.9449641855989643 C 3.9996755518352947 -2.9449641855989643 4.012248964094402 -2.932390773339861 4.012248964094402 -2.9168806832962053 L 4.012248964094402 -1.9920246157855142 C 4.01223822596142 -1.9765227784237396 3.999677035564416 -1.9639572295290195 3.9841752028607758 -1.963941113482752 Z M 3.8266718560923545 -1.9639411134827551 C 3.81121729184297 -1.964138983552694 3.7988252231731288 -1.9767835074325302 3.7989390322782843 -1.9922389193063827 L 3.805757780669523 -2.917065763609686 C 3.8058761372359338 -2.932581233497264 3.8185498576747006 -2.945063060027117 3.834065327562281 -2.944944703460709 C 3.849580797449862 -2.944826346894301 3.8620626239797167 -2.932152626455536 3.8619442674133055 -2.916637156567952 L 3.85512551902207 -1.991829794402913 C 3.85497631180944 -1.9764173907822642 3.8424648111718573 -1.9639883740142599 3.827051757788438 -1.9639411134827613 Z M 0.4886899561307321 -1.9639411134827551 C 0.4732813379863212 -1.9640250082967559 0.4607824532082809 -1.9764415495204328 0.4605967127588408 -1.9918492765411684 L 0.45377796436760515 -2.916646897637078 C 0.45372091653512836 -2.9240968456431484 0.4566264606760522 -2.9312641659588805 0.46185509871485836 -2.9365713614525024 C 0.46708373675366455 -2.941878556946115 0.4742069338539826 -2.944890654277418 0.4816569042186294 -2.944944703460709 C 0.4971490764042084 -2.9449832916176026 0.5097819230216342 -2.932537308572433 0.5099741921805169 -2.917046281471428 L 0.5167929405717541 -1.9922389193063859 C 0.5169171858189433 -1.976737781783122 0.5044540670647337 -1.9640697062124446 0.4889529649972525 -1.963941113482752 Z M 0.33156651105840096 -1.9639411134827551 C 0.3160599234704758 -1.963951818661743 0.3034859977628864 -1.9765083168908768 0.30345378554824987 -1.9920148747163913 L 0.30345378554824987 -2.9168806832962053 C 0.3034537867720613 -2.932401532177521 0.31603592112917217 -2.944983665538098 0.3315567699991854 -2.9449836655326216 C 0.34707761886920013 -2.9449836655271415 0.3596597532174323 -2.932401532157691 0.35965975443029224 -2.9168806832876744 L 0.35965975443029224 -1.9920246157855142 C 0.35963828027323425 -1.9765196269879595 0.3470715063708136 -1.9639572104967347 0.3315665110584025 -1.963941113482752 Z M 4.137752898769658 -2.2357948707721937 C 4.122244110912029 -2.2358163548375902 4.109680125474427 -2.248389056186008 4.109669396466898 -2.2638978552132176 L 4.109669396466898 -2.645007443868505 C 4.109954500370855 -2.660316355500982 4.122446203100629 -2.6725775863862022 4.137757769304223 -2.6725775863862022 C 4.153069335507815 -2.6725775863862022 4.16556103823759 -2.660316355500982 4.165846142141548 -2.645007443868505 L 4.165846142141548 -2.482536151843619 L 4.248508854781589 -2.482536151843619 L 4.248508854781589 -2.4263594061689684 L 4.165846142141549 -2.4263594061689684 L 4.165846142141549 -2.2638978552132114 C 4.165830034664026 -2.248383682315543 4.153257330598202 -2.235810978249714 4.137743157700529 -2.235794870772188 Z M 0.17800829728777226 -2.2357948707721937 C 0.16249950943014674 -2.2358163548375902 0.14993552399254317 -2.248389056186008 0.14992479498501163 -2.2638978552132176 L 0.14992479498501163 -2.4263594061689715 L 0.06695036813280451 -2.4263594061689715 L 0.06695036813280451 -2.4825361518436218 L 0.14987608963936133 -2.4825361518436218 L 0.14987608963936133 -2.645007443868505 C 0.14987608850074735 -2.6550407136560743 0.155228773553222 -2.664311837741982 0.1639178398746884 -2.6693284729580506 C 0.17260690619615474 -2.6743451081741227 0.18331227770242445 -2.674345108171504 0.19200134402143926 -2.6693284729511886 C 0.2006904103404556 -2.664311837730869 0.2060430953883997 -2.6550407136423493 0.2060430942448826 -2.645007443864758 L 0.2060430942448826 -2.2638978552132114 C 0.20602707724875577 -2.2484064450093504 0.1934898995051355 -2.2358431390731357 0.1779985562186477 -2.235794870772188 Z" fill="#b7b7a5" transform="matrix(1,0,0,1,0,0)" fill-rule="nonzero"></path></g><g clip-path="url(&quot;#SvgjsClipPath1008&quot;)"><path d=" M 2.845200694796147 -1.2012446237847754 C 2.714358654237464 -1.112815198219577 2.4632631152647737 -0.9832297555787091 2.165761122955159 -1.0334352258764663 C 2.1605342495654334 -1.034350874100626 2.155187982215482 -1.034350874100626 2.149961108825753 -1.0334352258764663 C 1.8516311256400604 -0.9833174252008838 1.6007109259117163 -1.112980796394797 1.4702390459799848 -1.2014978915821666 C 1.4306610821034267 -1.326183576450478 1.3504238956768442 -1.4278900792403233 1.22653697847722 -1.509754024211674 C 1.3880731278655958 -1.5279503413471422 1.5639383899446944 -1.5076109890030005 1.7516390510171531 -1.4476839317131693 C 1.8850538167736683 -1.405073950432727 2.012944499060389 -1.3467920031766831 2.1326317468428866 -1.2740591155340453 C 2.1481423031015723 -1.2643728644618712 2.167830889939387 -1.2644296584623653 2.183285306320633 -1.2742052315710004 C 2.3027627362523964 -1.3469719061241485 2.4305023509954298 -1.405210470431113 2.5637909486898467 -1.4476839317131693 C 2.7514526454857875 -1.5076109890030005 2.927327648634015 -1.5279503413471422 3.0888345748150003 -1.509754024211674 C 2.9648599879932034 -1.4278900792403233 2.884603319428358 -1.326056942551781 2.845200694796147 -1.2012446237847754 Z M 2.498847240797894 -2.284344359317786 C 2.441900950661945 -2.197473504813443 2.3391521534751534 -2.074619140941633 2.1786388163454644 -1.99663214148416 C 2.1655208625792537 -1.9902555920456042 2.1502013692016573 -1.9902555920456042 2.137083415435446 -1.99663214148416 C 1.9765603372366263 -2.074560694526852 1.8737823168424441 -2.197298165569097 1.816777580291713 -2.284149537935179 C 1.8125267958375673 -2.245941904805556 1.8149227611852776 -2.2072867774832705 1.823859337549469 -2.169896538105457 L 1.7771022057238526 -2.1589086121264387 L 1.7771996164151562 -2.1589086121264387 L 1.7781152769134085 -2.1589086121264387 L 1.8238398554112092 -2.1697309399302434 C 1.828350369133724 -2.151059709310129 1.8342104123572858 -2.1327405630773546 1.8413737798458119 -2.114917943933838 C 1.847544680876646 -2.099362264197651 1.8450924844125334 -2.0817086688383624 1.8349154510124017 -2.0684238209747416 C 1.8154917591665105 -2.0430385948210814 1.8077768324152823 -2.001307854666722 1.8147904021891252 -1.9595186680975785 C 1.8216955315977972 -1.9140419917994071 1.8471695761884577 -1.8734726090556595 1.8851306623792863 -1.8474963730987048 C 1.944892121493902 -1.8081424538121431 2.033720930893442 -1.807782034254319 2.141817575032789 -1.8466196768769723 C 2.1522118469544536 -1.8503283392542378 2.163568831241238 -1.8503283392542378 2.1739631031629023 -1.8466196768769723 C 2.28162139919138 -1.8079378913604067 2.3701579765170124 -1.8080158199134457 2.4299194356316294 -1.8469021678817512 L 2.4525966445670524 -1.8120096582568883 L 2.4566391882561422 -1.807782034254319 L 2.4566391882561422 -1.807782034254319 L 2.4566391882561422 -1.807782034254319 L 2.430494158710319 -1.8475255963060926 C 2.4684591396804216 -1.8733657332918243 2.4939685338679127 -1.9138300054107822 2.500912347453521 -1.9592264360236644 C 2.508023327918669 -2.0011130332841147 2.5003181422365732 -2.0429411841297807 2.48082626290677 -2.068394597767348 C 2.470649792052195 -2.0816810352646486 2.4682080476868595 -2.0993392865612277 2.474397157280749 -2.114888720726447 C 2.481559634895661 -2.1326652029306827 2.487397472426574 -2.150947109085772 2.4918628942314403 -2.1695848238932847 L 2.5376459191440235 -2.158869647849916 L 2.538620026057055 -2.158869647849916 L 2.538707695679228 -2.158869647849916 L 2.4919505638536132 -2.1699062791745862 C 2.5009211827312656 -2.2073558970174276 2.5032554230111748 -2.2460884603060363 2.498847240797894 -2.284344359317786 Z" fill="#ba8437" transform="matrix(1,0,0,1,0,0)" fill-rule="nonzero"></path></g><g clip-path="url(&quot;#SvgjsClipPath1008&quot;)"><path d=" M 2.3186666850940547 -2.8973985450355344 C 2.3494534609167705 -2.8623608455540426 2.366839368493721 -2.817553655403361 2.367742191372691 -2.770920503447241 C 2.3177218013884118 -2.7666831383755452 2.2195513066928783 -2.774212984813297 2.1316089345841984 -2.876026639363575 C 2.1193528118499745 -2.8902267431277298 2.099890993610267 -2.895889750631205 2.0819294820194822 -2.890482385952992 C 2.0371424896447548 -2.8773654062167147 1.9950637033991654 -2.8563408586084718 1.9576821452620357 -2.828402552385361 C 1.9792184891312703 -2.892817198029313 2.032306278260984 -2.9416716460693575 2.0982847370893185 -2.9577931736436223 C 2.117538061022024 -2.9629947079919647 2.1373731628417514 -2.9657343086888437 2.1573156160191553 -2.965946448505706 C 2.2182738805212243 -2.966440463759074 2.2767040099137477 -2.9416171831182165 2.318666685094053 -2.8973985450355375 Z M 2.1615042757452008 -3.3820654396154395 C 2.1431625091141844 -3.3906463650349097 2.123161500120378 -3.3950987924734304 2.1029117449262227 -3.39510873118096 C 2.0489851862206803 -3.39510873118096 1.9926915477164648 -3.365203648950822 1.9275043130962501 -3.3305644071233447 C 1.8454163235349033 -3.2869438995576967 1.7527203096906192 -3.236309822218209 1.6385257562756816 -3.238297000320795 C 1.6778333766611522 -3.188923516088315 1.7376853385860942 -3.160398799692464 1.80079248584883 -3.1609626524950567 L 1.80079248584883 -3.1609626524950567 C 1.8404036342870902 -3.1616626250172066 1.8794254932349732 -3.170679667946397 1.915327976683327 -3.187429137322177 C 1.9570764803546643 -3.2068912055397516 2.0024004580137174 -3.2175041667946194 2.0484494274185088 -3.2186005585392525 C 2.1106266716774504 -3.2186005585392525 2.1574130267104574 -3.193790055464285 2.176817236418089 -3.150607896009503 C 2.1841833597377 -3.1340437695123247 2.1872265929838854 -3.115881565810679 2.185662127188435 -3.0978210423922095 C 2.2423746316652537 -3.132090123592733 2.2740720706153716 -3.1739182744383996 2.277159989529688 -3.2201980938766304 C 2.2812220153570393 -3.281557088328622 2.232575116120139 -3.3496081972731524 2.1615042757452008 -3.382045957477175 Z" fill="#cf9645" transform="matrix(1,0,0,1,0,0)" fill-rule="nonzero"></path></g><g clip-path="url(&quot;#SvgjsClipPath1008&quot;)"><path d=" M 0.4410074227377358 -1.9917518658498647 L 0.43418867434650016 -2.9165981922914264 C 0.43399969131503685 -2.9428698480438387 0.4551417507488696 -2.964321537473505 0.48141337749037183 -2.964514511343551 L 0.48177379704819434 -2.964514511343551 C 0.5079050451108241 -2.9645099108364152 0.5291414740130562 -2.9434300478650637 0.5293394376116287 -2.917299549268807 L 0.5361581860028659 -1.9924532228272454 C 0.5363525884800989 -1.966181550537942 0.5152148669819879 -1.944725476725129 0.4889432239281249 -1.9445271627059852 L 0.4885730633011702 -1.9445271627059852 C 0.46243804540229766 -1.9445318038690922 0.44120006373824744 -1.9656175575261323 0.4410074227377358 -1.9917518658498585 Z M 0.3315178057127507 -2.964514511343551 C 0.3052480278136328 -2.964514511343551 0.2839521651493178 -2.9432186486792378 0.2839521651493163 -2.9169488707801183 L 0.2839521651493163 -1.9921025443385565 C 0.28370663746644037 -1.9749450072949508 0.29271944369462133 -1.9589846704885154 0.3075387364127082 -1.9503342413325984 C 0.322358029130792 -1.9416838121766846 0.34068732336383856 -1.9416838121766846 0.3555066160819254 -1.9503342413325984 C 0.3703259088000092 -1.9589846704885154 0.37933871502819166 -1.9749450072949508 0.3790931873453157 -1.9921025443385565 L 0.3790931873453157 -2.9169488707801183 C 0.3790931876111958 -2.9295657509314124 0.37408048486686196 -2.9416657341881147 0.3651580899675751 -2.950586302227065 C 0.3562356950682867 -2.959506870266019 0.3441346856093203 -2.9645170951800868 0.33151780571767525 -2.964514511343551 Z M 0.17784269911255854 -2.692660754054115 C 0.16522492339319247 -2.692660754054115 0.15312393891728746 -2.6876483621661293 0.14420182414263435 -2.6787262473914746 C 0.13527970936797973 -2.66980413261682 0.13026731747999348 -2.6577031481409152 0.13026731747999348 -2.6450853724215504 L 0.13026731747999348 -2.50210595972647 L 0.047575381632565056 -2.50210595972647 C 0.02130022388951913 -2.50210595972647 0 -2.4808057358369497 0 -2.4545305780939053 C 0 -2.4282554203508573 0.02130022388951913 -2.40695519646134 0.047575381632565056 -2.40695519646134 L 0.13026731747999348 -2.40695519646134 L 0.13026731747999348 -2.2639660426971244 C 0.13026731747999348 -2.237690884954077 0.1515675413695126 -2.216390661064559 0.17784269911255854 -2.216390661064559 C 0.20411785685560446 -2.216390661064559 0.2254180807451236 -2.237690884954077 0.2254180807451236 -2.2639660426971244 L 0.2254180807451236 -2.6451048545598117 C 0.22540732417208273 -2.6713724037322337 0.20411025048739675 -2.6926607562565272 0.17784269911256312 -2.6926607540541188 Z M 4.267961769834872 -2.50210595972647 L 4.185289316125703 -2.50210595972647 L 4.185289316125703 -2.6451048545598117 C 4.185534843808579 -2.6622623916034143 4.176522037580395 -2.6782227284098497 4.16170274486231 -2.686873157565767 C 4.146883452144225 -2.695523586721684 4.1285541579111795 -2.695523586721684 4.113734865193094 -2.686873157565767 C 4.098915572475008 -2.6782227284098497 4.089902766246825 -2.6622623916034143 4.090148293929704 -2.6451048545598117 L 4.090148293929704 -2.2639855248353857 C 4.090520459592885 -2.2379784934585336 4.111709110905752 -2.217090886443148 4.137718805027702 -2.217090886443148 C 4.163728499149652 -2.217090886443148 4.1849171504625176 -2.2379784934585336 4.185289316125701 -2.2639855248353857 L 4.185289316125701 -2.4069746785995982 L 4.267961769834872 -2.4069746785995982 C 4.294236927577916 -2.4069746785995982 4.315537151467436 -2.428274902489116 4.315537151467436 -2.4545500602321635 C 4.315537151467436 -2.4808252179752106 4.294236927577916 -2.5021254418647283 4.267961769834872 -2.5021254418647283 Z M 3.826613409677575 -1.9445271627059946 L 3.8269738292353974 -1.9445271627059946 C 3.853106658610442 -1.9445371123219577 3.8743415362257645 -1.965619784179233 3.8745394697988305 -1.9917518658498679 L 3.8813582181900674 -2.9165981922914326 C 3.8814541580006634 -2.929214260164114 3.8765329414868086 -2.9413514074038103 3.867677788493485 -2.950338099702995 C 3.8588226355001614 -2.9593247920021835 3.846759367153774 -2.964424426488821 3.834143256115328 -2.964514511343557 L 3.8337828365575026 -2.964514511343557 C 3.807651588494874 -2.9645099108364246 3.786415159592642 -2.9434300478650726 3.7862171959940714 -2.917299549268816 L 3.7793984476028326 -1.9924532228272485 C 3.779209437827372 -1.9661837377476756 3.800344034196286 -1.9447308361311988 3.826613409677572 -1.9445271627059915 Z M 3.984038827892948 -2.964514511343557 C 3.9577690499938267 -2.964514511343557 3.936473187329512 -2.943218648679241 3.9364731873295105 -2.916948870780124 L 3.9364731873295105 -1.9921025443385596 C 3.9362276596466343 -1.974945007294957 3.945240465874817 -1.9589846704885214 3.960059758592904 -1.9503342413326046 C 3.974879051310989 -1.9416838121766877 3.9932083455440326 -1.9416838121766877 4.00802763826212 -1.9503342413326046 C 4.022846930980204 -1.9589846704885214 4.0318597372083875 -1.974945007294957 4.03161420952551 -1.9921025443385596 L 4.03161420952551 -2.916948870780124 C 4.0316142097913925 -2.9295657509314124 4.026601507047059 -2.9416657341881147 4.01767911214777 -2.950586302227065 C 4.0087567172484855 -2.959506870266019 3.996655707789519 -2.9645170951800806 3.9840388278978756 -2.964514511343551 Z M 3.8870664847004455 -0.2975753816325719 C 3.8870664847004455 -0.2849576059132075 3.8820540928124605 -0.27285662143730516 3.8731319780378044 -0.2639345066626477 C 3.8642098632631514 -0.25501239188799296 3.8521088787872446 -0.25000000000000666 3.83949110306788 -0.25000000000000666 L 0.4858845282211974 -0.25000000000000666 C 0.4596093704781514 -0.25000000000000666 0.43830914658863235 -0.27130022388952435 0.43830914658863235 -0.2975753816325719 C 0.43830914658863235 -0.3238505393756195 0.4596093704781514 -0.3451507632651367 0.4858845282211974 -0.3451507632651367 L 0.9528616412604091 -0.3451507632651367 C 0.9776429211279877 -0.3766436397635169 1.0346866219552384 -0.4084677126123273 1.1239537794656451 -0.45809845983138864 C 1.156674030674445 -0.47628503589773086 1.1990671635296717 -0.49984868212401246 1.220390363855979 -0.5140901251925669 C 1.2034116803618031 -0.6413474523112832 1.1570734145087902 -0.768283324148701 1.1122060500944593 -0.891264321919202 C 1.028695864440082 -1.1200917768599439 0.9423412865996462 -1.3567120871049538 1.0434535841725436 -1.6003070028472877 C 1.0484410374457505 -1.612322663923781 1.0581323868204517 -1.6217711135139377 1.0702707474883586 -1.6264520323931126 C 1.0720306489722065 -1.627043283634356 1.073822628984769 -1.6275343707158387 1.0756380765791735 -1.62792293383179 L 1.0755796301643912 -1.6281469784217908 C 1.3135734311567784 -1.6892137407998686 1.5528920175508922 -1.6554219719867365 1.7483465696510987 -1.5970827089651478 C 1.7887322034235902 -1.6463616613048373 1.8350920981485506 -1.6904245030867648 1.8863580370897108 -1.7282559458742646 C 1.8807179580632447 -1.7626321788352186 1.8476275462274887 -1.8024634105091666 1.8285642739394214 -1.8198804421142087 C 1.7929941216106322 -1.844308281841927 1.7643574035321288 -1.877532647126962 1.7454437310502589 -1.9163170265045475 C 1.7308778895218127 -1.9460155659936422 1.7217492381280457 -1.9780829644567413 1.7184901927666192 -2.0110002184514144 C 1.639353747151761 -1.9080858230894062 1.507615528233087 -1.7858061822962887 1.298163059792585 -1.7128747977174572 C 1.290586490676414 -1.7101582002334212 1.2824390438610778 -1.7094336845841362 1.2745020028749965 -1.7107707267853058 C 0.8915123878775464 -1.7739902654411899 0.8180842087730673 -2.2346454246148175 0.8098530053579337 -2.297650659749836 C 0.7966916950624177 -2.33309226696006 0.7869294406925549 -2.369704797966313 0.7806979854508361 -2.406994160737869 L 0.6864823648222212 -2.406994160737869 L 0.6864823648222212 -1.9921415086150822 C 0.6864823648222212 -1.9658663508720349 0.6651821409327021 -1.9445661269825172 0.6389069831896561 -1.9445661269825172 C 0.6126318254466102 -1.9445661269825172 0.5913316015570911 -1.9658663508720349 0.5913316015570911 -1.9921415086150822 L 0.5913316015570911 -2.916987835056644 C 0.5913316015570911 -2.943262992799691 0.6126318254466102 -2.964563216689209 0.6389069831896561 -2.964563216689209 C 0.6651821409327021 -2.964563216689209 0.6864823648222212 -2.943262992799691 0.6864823648222212 -2.916987835056644 L 0.6864823648222212 -2.5021449240029927 L 0.7769671559739185 -2.5021449240029927 C 0.7784834548180636 -2.5173112423957713 0.7816585432694138 -2.5322655170154 0.7864354751686043 -2.546739538481674 C 0.7906893861994971 -2.5591848656302534 0.7999074617879334 -2.5693127589317015 0.8118986298753068 -2.5747158890239974 C 0.8588858469036708 -2.594158108619138 0.9094433866305028 -2.603478327339789 0.9602745948685956 -2.6020688111419856 C 1.022072699064339 -2.6013357477049928 1.083542225793762 -2.5929530933439553 1.1432800606202296 -2.5771121920300653 C 1.1594239061056202 -2.5725183959616675 1.1719535249123971 -2.5597592833983094 1.176253579626424 -2.543534726737793 C 1.1797912147437526 -2.529915617819336 1.1824945143532584 -2.516093331368327 1.1843484080737312 -2.5021449240029927 L 1.804299270735753 -2.5021449240029927 L 1.804299270735753 -2.5006350582877896 C 1.8054389758240015 -2.5006350582877896 1.80657868091225 -2.5007032457717027 1.8077281270696322 -2.5006350582877896 C 1.8098503885837918 -2.500477325768663 1.8119593794152895 -2.5001746465289587 1.8140403398660898 -2.4997291388586698 L 1.8140403398660898 -2.4997291388586698 C 1.8435850025384002 -2.493533818891775 1.884419564332772 -2.490104962557899 1.9111393169572863 -2.5088370384955345 C 1.9222021941363163 -2.516901994727501 1.930666756169186 -2.528024429238693 1.9354919897831278 -2.540836450588688 C 1.8913375383891562 -2.6120246589379157 1.8634010472380789 -2.6920627060857507 1.8536670090882983 -2.7752650202793694 C 1.8454358056731646 -2.8671233021784435 1.8706067283059546 -2.9483248544489333 1.9264425365610456 -3.010112455942659 C 1.9623815059164937 -3.0492941695838676 2.0080420722518038 -3.0782760437338412 2.0587944428349303 -3.0941194361226803 C 2.090745149582435 -3.1332200876118543 2.092420613472852 -3.155575841265976 2.0901704265037453 -3.1606022329372268 C 2.088436516198544 -3.1644402141745784 2.0760458762647556 -3.172369444446674 2.0487319184232935 -3.172369444446674 C 2.0159868494399786 -3.171148817308866 1.983826750039722 -3.163319194922422 1.9541851014442448 -3.149351298091691 C 1.9061439679058323 -3.127180330792907 1.8539713718917867 -3.115377687404271 1.8010652357844825 -3.1147120562642074 L 1.8010652357844825 -3.1147120562642074 C 1.6439320496430192 -3.1147120562642137 1.5345885486549895 -3.228224734840026 1.5114827326778308 -3.335006334646777 C 1.508011846236862 -3.351052555107273 1.5130593239416361 -3.3677544747155785 1.5248362571973448 -3.3791926601854625 C 1.5366131904530522 -3.39063084565535 1.5534552704077618 -3.395188859760388 1.5693933886576792 -3.3912512678053437 C 1.592927528339735 -3.385346704211698 1.6170968723197698 -3.3823500719586246 1.6413604073926114 -3.382328448481951 C 1.730198957861279 -3.382328448481951 1.807932689521367 -3.423601358387186 1.883036332516263 -3.463520259683305 C 1.956298913445525 -3.502435830859001 2.0254799864091777 -3.5391986257568906 2.1031065663088313 -3.5391986257568906 C 2.1370058240606054 -3.5391459442210387 2.1704911246547085 -3.5317483381151957 2.201257578866105 -3.517515005872759 C 2.3086139017515457 -3.4684589817323843 2.378915197665187 -3.363742488581265 2.372223083172644 -3.2628639766674974 C 2.3693007624335443 -3.218980460235332 2.3499355170024336 -3.1507053067008006 2.2702243483088878 -3.089541133631416 C 2.315746155198282 -3.0730913536517783 2.356599027126481 -3.0458460779942187 2.3892796952198636 -3.0101416791500437 C 2.445134985613214 -2.9483540776563175 2.4703059082460044 -2.8671330432475663 2.4620844458999995 -2.775255279210234 C 2.4556261170665867 -2.703025251608786 2.4260424901177533 -2.615326406228365 2.38025946520517 -2.5408267095195525 C 2.3850783023031306 -2.528013801491519 2.3935443371161536 -2.5168928181611254 2.4046121380310117 -2.5088370384955283 C 2.4313221495863955 -2.49010496255789 2.4721469703116363 -2.4935435599608953 2.50171111512221 -2.49972913885866 L 2.50171111512221 -2.499670692443879 C 2.5038117689650172 -2.5001162109087662 2.505940197094015 -2.5004188772940843 2.50808177433345 -2.5005766118729995 C 2.5092117383525694 -2.5006545404260416 2.5103222202334274 -2.5005766118729995 2.511442443183416 -2.5005766118729995 L 2.511442443183416 -2.502135182933851 L 3.131364082638047 -2.502135182933851 C 3.1332085289520304 -2.516085138839302 3.1359119412599012 -2.529908001530215 3.139458911085359 -2.5435249856686513 C 3.1437589657993814 -2.5597495423291683 3.156288584606158 -2.5725086548925264 3.1724324300915443 -2.5771024509609237 C 3.2321734598987497 -2.592943952362115 3.2936462832746276 -2.601326610095186 3.3554476369123134 -2.602059070072844 C 3.4062758300315195 -2.6034704305165803 3.4568305735452878 -2.5941501153838487 3.5038138608364715 -2.574706147954859 C 3.5158022287417094 -2.569299160820127 3.5250190016963154 -2.559172698721565 3.5292770155431725 -2.54672979741253 C 3.5340539474423647 -2.5322557759462585 3.5372290358937146 -2.5173015013266298 3.5387453347378615 -2.502135182933851 L 3.6292593490969476 -2.502135182933851 L 3.6292593490969476 -2.9169780939875025 C 3.629631514760131 -2.9429851253643546 3.650820166072996 -2.9638727323797402 3.6768298601949465 -2.9638727323797402 C 3.7028395543168955 -2.9638727323797402 3.7240282056297627 -2.9429851253643546 3.7244003712929454 -2.9169780939875025 L 3.7244003712929454 -1.992131767545941 C 3.724645898975823 -1.9749742305023352 3.7156330927476406 -1.9590138936958998 3.700813800029554 -1.9503634645399828 C 3.6859945073114684 -1.941713035384066 3.667665213078425 -1.941713035384066 3.652845920360338 -1.9503634645399828 C 3.638026627642253 -1.9590138936958998 3.62901382141407 -1.9749742305023352 3.6292593490969476 -1.992131767545941 L 3.6292593490969476 -2.4069844196687216 L 3.534985282053547 -2.4069844196687216 C 3.5287489987328273 -2.3696961016754283 3.518986865131101 -2.3330840236001293 3.50583026214645 -2.2976409186806976 C 3.4975600944547947 -2.2346356835456764 3.4241513974885773 -1.7739805243720514 3.0411812646293868 -1.7107609857161648 C 3.0332474519518366 -1.7094238857418045 3.025103132639249 -1.7101484215620326 3.017529948780929 -1.7128650566483126 C 2.8080969624786882 -1.7857964412271472 2.676339261421753 -1.908085823089397 2.597212556876027 -2.0110002184514055 C 2.593955650436486 -1.9780744205415266 2.5848304385991714 -1.9459976184105843 2.570268759661515 -1.9162878032971418 C 2.55133890308067 -1.8774993637045687 2.5226854495203095 -1.844275050018978 2.4870995114267007 -1.8198512189068032 C 2.4680362391386303 -1.8022198837808983 2.4351114254780923 -1.7623009824847786 2.429383676829455 -1.7282851690816399 C 2.48062614691626 -1.6904650397841907 2.5269661227360865 -1.6464188305968852 2.5673366978532832 -1.5971606375181748 C 2.762762026746099 -1.655460936263247 3.0021000952784744 -1.6892721872146463 3.240123119478252 -1.6282054248365623 L 3.2400646730634697 -1.6279813802465615 C 3.2418769182983236 -1.6275928053652806 3.2436656557635435 -1.6271017156248346 3.245422261085152 -1.6265104788078841 C 3.2575625097674665 -1.6218325034393488 3.2672548657772134 -1.6123830724440107 3.2722394244009703 -1.6003654492620596 C 3.3733419809047342 -1.356780274588858 3.286997144133432 -1.120130741136454 3.2034966995481837 -0.8913714736796288 C 3.1586001119264626 -0.7683709937708665 3.11227158714258 -0.6414156397951873 3.095302644717535 -0.5141485716073388 C 3.116655068251233 -0.4999071285387844 3.159038460037326 -0.4763434823125028 3.191739229107869 -0.4581569062461601 C 3.2809576812726235 -0.4085651233036187 3.3380500874455263 -0.3767020861782857 3.3628216262439743 -0.34520920967990865 L 3.8396274780356974 -0.34520920967990865 C 3.8658721904852142 -0.3451339987646911 3.887098834262124 -0.3238201819127342 3.8870664847004406 -0.2975753816325688 Z M 2.972380093361824 -1.8334887156892865 C 2.967995424520558 -1.8749000071399038 2.969893632932143 -1.9167361264395237 2.9780104313191593 -1.957580195340647 C 2.865014029407253 -2.1380042777727457 2.6996593809197864 -2.2715056302040084 2.5930531203573817 -2.345352675281092 C 2.5983709078167676 -2.300832389375107 2.596549144686293 -2.255748684467504 2.5876565680591743 -2.211802617504175 C 2.608979768385482 -2.1614510311694564 2.710618083691414 -1.9534889463059009 2.9723606112235625 -1.8334887156892834 Z M 3.272609585027933 -2.355181414033602 C 3.2855987321716382 -2.3516342728375426 3.296477636666718 -2.3427513171639713 3.3025504535422163 -2.3307337862452613 C 3.3086232704177148 -2.318716255326551 3.309321683315559 -2.304688793548453 3.304472622153266 -2.292127473552935 C 3.273983075775308 -2.213224813597207 3.2232321056062565 -2.1584312997390622 3.178452410814099 -2.110076632576071 C 3.105452838751355 -2.0312421601042594 3.046441441959775 -1.9675258269227252 3.0703947309512714 -1.814844309373826 C 3.3616526979483417 -1.900643646273832 3.4114393022734917 -2.310236121066235 3.4119360967991375 -2.314561155760102 C 3.4124185754619467 -2.318804452383552 3.413463546363881 -2.322964681366175 3.4150434978517152 -2.326932313555626 C 3.426820450430292 -2.3565646458501144 3.4519913730630805 -2.438136358747557 3.4438283571318595 -2.495647630893065 C 3.4150294165945754 -2.5036590812753596 3.3852176991055316 -2.5074359978224026 3.35533074408275 -2.5068596014620805 C 3.3118859973469474 -2.506361265983918 3.268604552755696 -2.5014459612893685 3.2261544263453517 -2.492189551351789 C 3.219842213548897 -2.44978667742743 3.216179571555891 -2.370562562190397 3.272590102889673 -2.355181414033599 Z M 3.131237448739356 -2.406955196461343 L 2.6716440661009373 -2.406955196461343 C 2.772853774365137 -2.3344913832007714 2.910933429287661 -2.2187869640706275 3.0206081266261227 -2.0649949646408716 C 3.0461044397565815 -2.104496261738292 3.075603600560552 -2.1412649402041497 3.1086381683569737 -2.1747183673249806 C 3.1417578034001203 -2.21043886782593 3.173377313797193 -2.244620279404283 3.1970773349913024 -2.286925742637332 C 3.1571973979717027 -2.315486557327474 3.1382120542366763 -2.360412368156589 3.1312179666010933 -2.40695519646134 Z M 2.157802669475675 -2.474762778677614 C 2.2382346772848662 -2.4783182689101872 2.325349058517467 -2.604757346221958 2.3564522922506326 -2.7238613984785878 C 2.353296185852403 -2.7237834699255483 2.3500816330393923 -2.7237250235107613 2.3467599284659473 -2.7237250235107613 C 2.277929533990988 -2.7237250235107613 2.176037950887666 -2.74362602774404 2.0818028481207884 -2.838581969626563 C 2.030051682266013 -2.819262044940885 1.985881942944007 -2.7838176561653283 1.9558118599890115 -2.7374794131228004 C 1.9835544248722095 -2.614595826043594 2.0742730016830366 -2.478454643878008 2.157783187337412 -2.4747627786776114 Z M 2.1768756828328746 -3.199576250527709 C 2.184248286466705 -3.1829935533300358 2.187288373326095 -3.1648100128535304 2.185710832534087 -3.1467309504956313 C 2.242403854872649 -3.1810292549035495 2.274111034891896 -3.222837923610954 2.2771892127370834 -3.269137225187443 C 2.281260979633562 -3.330437773224651 2.2326530446731843 -3.3984888821691843 2.1616114275056364 -3.430946124511465 C 2.143274529133071 -3.439544675399134 2.1232717185831724 -3.4440074803464227 2.10301889668666 -3.4440186392843732 C 2.0491020790502468 -3.4440186392843763 1.99278895840777 -3.4141038159851123 1.9275822416492956 -3.3794645741576352 C 1.8461371626505498 -3.336204486149814 1.7538113094332188 -3.2871582030785653 1.6412727377704384 -3.2871484620094362 L 1.6385647205522043 -3.2871484620094362 C 1.6779302442595725 -3.237768531530193 1.7378293802953966 -3.209250607830058 1.800977566162308 -3.209823855252821 L 1.800977566162308 -3.209823855252821 C 1.8405599784981757 -3.210519022592053 1.8795547581856678 -3.219522668319045 1.915435128443766 -3.236251375803431 C 1.9572103831384513 -3.255733357994533 2.002563063324136 -3.266365949780661 2.048644248801122 -3.2674812434352876 C 2.1107240823687556 -3.2674909845044167 2.157451990986982 -3.24273892784423 2.1768659417637424 -3.1995762505277066 Z M 1.9969483949264248 -2.9463084531389567 C 1.9790120037246912 -2.926352665698408 1.9655919914513083 -2.9027621514273005 1.9576042167089949 -2.8771468623135696 C 1.9949647313632988 -2.9051002431079835 2.037013584459342 -2.926162604998487 2.0817736249134007 -2.9393435887107686 C 2.099748197474437 -2.944774049363608 2.119235523033728 -2.9391266552324655 2.131521264962027 -2.924926806397868 C 2.219356485310274 -2.8233664196449784 2.317897140632761 -2.815593046478968 2.3678298609948665 -2.819723259790231 C 2.366907893808446 -2.866438711390488 2.3494735801624147 -2.911318610235829 2.3186179797484043 -2.94640586383026 C 2.276558430625338 -2.990169441545297 2.2184812631459283 -3.01490400147841 2.157783187337417 -3.01490400147841 C 2.0970851115289055 -3.01490400147841 2.0390079440494957 -2.990169441545297 1.9969483949264264 -2.94640586383026 Z M 1.8865041531266677 -2.40138330491879 C 1.9320046870344707 -2.3285882953077848 2.0195379342396746 -2.2153873309441385 2.1578026694756764 -2.141783812595314 C 2.2960284404351556 -2.2153873309441385 2.3835714287094905 -2.3285688131695235 2.4290817036864243 -2.40138330491879 C 2.3998320726230706 -2.404618874564764 2.37189256793997 -2.4152676045387858 2.3479093746233266 -2.4323209404767416 C 2.3369106828084547 -2.440303005818164 2.326987136295416 -2.4496699693858988 2.3183841940892775 -2.4601901392586294 C 2.272659615591477 -2.412975177183885 2.218440824812022 -2.3812874793029044 2.1591177138082727 -2.379641238619878 L 2.1578026694756764 -2.379641238619878 L 2.1564876251430825 -2.379641238619878 C 2.0971450320010687 -2.3812679971646427 2.0429359822907474 -2.4129849182530174 1.9972016627238145 -2.4601901392586294 C 1.98859610223002 -2.449672408204649 1.9786728902065973 -2.4403057603659795 1.9676764821897639 -2.432320940476739 C 1.9436905852892803 -2.4152541267478203 1.9157437742324084 -2.40459510906938 1.8864846709884064 -2.4013540817113936 Z M 1.1184890396835265 -2.2869452247755935 C 1.142208543015896 -2.2446495026116704 1.1738670176894912 -2.210458349964192 1.2069476884561134 -2.174747590532374 C 1.2399847632782395 -2.1412832376411983 1.2694870387555268 -2.1045049528655198 1.2949874712560971 -2.0649949646408716 C 1.4046426864562989 -2.218806446208889 1.5427320824479518 -2.3345206064081587 1.643951531781282 -2.4069844196687367 L 1.184328925935473 -2.4069844196687367 C 1.1773250972307607 -2.360412368156589 1.1583494945648634 -2.315486557327474 1.1184695575452637 -2.286916001568197 Z M 1.137123704929861 -2.1101058557834587 C 1.0923147869303127 -2.1584605229464495 1.041602781037778 -2.2132637778737263 1.0111132346598262 -2.2921664378294544 C 1.0062546351757204 -2.3047259520187633 1.0069486535535797 -2.318756519610012 1.0130230089231997 -2.3307752380301223 C 1.0190973642928196 -2.342793956450233 1.0299824805611022 -2.3516738625458737 1.0429762717851563 -2.3552106372409956 C 1.0993478388424154 -2.3705820443286676 1.0957144200567999 -2.4496990078052616 1.0894119483294729 -2.49220903349005 C 1.0469625759711028 -2.5014538285576995 1.0036865381485545 -2.5063786808257436 0.9602453716612052 -2.506908306807729 C 0.9303520837735815 -2.5074832747679467 0.9005341457059333 -2.5037064015737327 0.8717282764738372 -2.4956963362387135 C 0.8635750016117457 -2.438224028369725 0.8887459242445358 -2.3566036101266334 0.9005326178922444 -2.326922572486497 C 0.9021193729517869 -2.3229571417731942 0.9031645766061714 -2.3187959861585665 0.9036400189448206 -2.3145514146909667 C 0.9041270724013373 -2.3102653442736223 0.9538941945882293 -1.9006728694812256 1.2451716437235578 -1.8148345683046938 C 1.2691054505767927 -1.9675258269227158 1.2101135359234738 -2.03124216010425 1.1371042227915982 -2.110076632576062 Z M 1.727929288753916 -2.2117928764350427 C 1.7190339903085625 -2.255748352641796 1.7172089521404257 -2.3008415930014996 1.7225229953865753 -2.3453721574193507 C 1.6159264758933025 -2.2715251123422693 1.4505036399219244 -2.138014018841878 1.3375754254939294 -1.9575704542715149 C 1.345683552998469 -1.9167383866891756 1.3475784534126098 -1.874915931274827 1.3431960223821342 -1.8335179388966711 C 1.6047242463934157 -1.9534012766837294 1.7064210081141304 -2.1611198348190293 1.727909806615653 -2.211763653227652 Z M 1.8307852377011404 -1.9584568915623768 C 1.8514850096031066 -1.9165702943019265 1.8970245077874306 -1.86662783287069 1.9962957432946928 -1.86662783287069 C 2.0460710697932956 -1.8679031493125453 2.0952655698223905 -1.8776471784464699 2.1417688696871404 -1.8954419153582263 C 2.15213429210371 -1.899143359911006 2.1634613057785113 -1.899143359911006 2.1738267281950776 -1.8954419153582263 C 2.2203305552494372 -1.877649008403076 2.26952473826119 -1.867905042061254 2.319299854587525 -1.86662783287069 C 2.4186003133021794 -1.86662783287069 2.4641203293482437 -1.9165508121636652 2.4848201012502082 -1.9584374094241155 C 2.5147446656186028 -2.0190171183456815 2.5050425607647884 -2.085499915160227 2.480719111146336 -2.1173142469399058 C 2.470479807307404 -2.130680452512882 2.468075061995393 -2.148465934019287 2.474397157280749 -2.1640713787655255 C 2.49674251218229 -2.217488917812922 2.505168439775529 -2.2757028940925483 2.4988862050744154 -2.3332640084903407 C 2.441920432800205 -2.246412636124262 2.3391326713368907 -2.1235777543907193 2.1785706288615514 -2.0456492013480245 C 2.165458060642508 -2.0392789635046302 2.150147278308838 -2.0392789635046302 2.1370347100897957 -2.0456492013480245 C 1.976414221199674 -2.1235777543907193 1.8736362008054903 -2.2464516004007873 1.8166704285312816 -2.3333029727668695 C 1.8103893591718683 -2.2757273973262877 1.8188220595508744 -2.2174995341766577 1.8411789584632108 -2.164071378765528 C 1.8474876354399934 -2.148465590086147 1.8450877324646748 -2.1306885310097137 1.8348667456667547 -2.117314246939912 C 1.8105140728409086 -2.085480433021963 1.8008606733327446 -2.019007377276549 1.8307657555628776 -1.9584276683549833 Z M 1.8463125018948974 -1.5647423594524228 C 1.9543628286653094 -1.5257202719658336 2.058625487992375 -1.4769163352360737 2.1578026694756796 -1.4189380367095463 C 2.2569674810720204 -1.4769296351277181 2.361224613516177 -1.5257372978503607 2.4692733549181978 -1.564752100521555 C 2.4352920306346535 -1.6020729558044775 2.397091428944345 -1.6353211433615638 2.355439221061081 -1.6638285146462146 C 2.344565997627922 -1.6711568967303618 2.3371969755052877 -1.682645663884737 2.335070645509546 -1.6955844000111089 C 2.331202766836806 -1.721380843265369 2.333789868014467 -1.7477337988577428 2.3426004919472927 -1.7722855783433795 C 2.3349342705417193 -1.771788783817732 2.3271803795139716 -1.77147706960556 2.3192998545875296 -1.77147706960556 C 2.264276286858081 -1.7724436002943946 2.2097590601048362 -1.782180346082217 2.157802669475675 -1.8003203753004868 C 2.1058429300736345 -1.7821802952103694 2.051322490564348 -1.7724435629192334 1.9962957432946944 -1.7714770696055568 C 1.988405477299122 -1.77147706960556 1.9806418452022436 -1.771788783817732 1.9729756237966687 -1.7722855783433795 C 1.981791142112154 -1.7477316075741172 1.9843816121336137 -1.7213750811929747 1.9805152113035478 -1.6955746589419767 C 1.9783852648137827 -1.6826399052278487 1.9710167750670422 -1.6711554919879479 1.9601466357520154 -1.6638285146462084 C 1.918483274548411 -1.635313055928751 1.8802756812858512 -1.602051397694106 1.846293019756636 -1.5647131362450324 Z M 1.2259525143294028 -1.5591315036333504 C 1.3505407885064091 -1.4770824783485246 1.4311189123525543 -1.375181154176072 1.4705605012612908 -1.250057121196897 C 1.6012174615064974 -1.1615205438712661 1.8520694737509282 -1.0322078511660449 2.149902662410975 -1.082335392910759 C 2.1551295840391287 -1.0832120441142923 2.1604660138430973 -1.0832120441142923 2.1656929354712506 -1.082335392910759 C 2.4635163830621685 -1.0321981100969184 2.7143294310300767 -1.1615108028021401 2.845015614482675 -1.2500376390586356 C 2.884437721253149 -1.3751616720378106 2.965035327237554 -1.4770727372793924 3.089623601414563 -1.559131503633353 C 2.6503013836363762 -1.6089278490276375 2.2333836248579617 -1.3548125786245424 2.1832950473897728 -1.3230079879139933 C 2.1677369518572482 -1.3131370500658095 2.1478781281632466 -1.3131370500658095 2.132320032630722 -1.3230079879139933 C 2.082192490886 -1.3547541322097523 1.6652552499693267 -1.608918107958499 1.22593303219114 -1.5591022804259564 Z M 2.819055665250327 -1.1218841335799223 C 2.6664520762544717 -1.0347113059325395 2.431244221033361 -0.9437004970478045 2.1578026694756764 -0.9872041117838872 C 2.1107662990289042 -0.9797162481140549 2.063211709298946 -0.9759574812271774 2.0155830601727596 -0.975962918007478 C 1.8031595656475075 -0.975962918007478 1.6219659387541152 -1.0502093469189027 1.4965594147701602 -1.1218743925107901 C 1.507800608546568 -1.0166708459031524 1.4985076285962282 -0.9078825858555541 1.4893412825445809 -0.80163674485097 C 1.4753044019277644 -0.639165452826084 1.461998101495725 -0.48512018559894 1.5155739817125773 -0.34517998647252135 L 2.8000898036535617 -0.34517998647252135 C 2.853665683870414 -0.4851104445298078 2.840349642369244 -0.6391459706878226 2.826312761752429 -0.8016172627127087 C 2.817068487147733 -0.9078338805099024 2.8077852482665224 -1.016641622695762 2.8190361831120625 -1.1218549103725288 Z M 1.4148415858357635 -0.34517998647252135 C 1.3673733559636327 -0.4958451027114408 1.3811374866447983 -0.6551213240615779 1.3945022334916215 -0.8098289839895827 C 1.418991281285286 -1.0931966849910801 1.4402852584042047 -1.3396262518503361 1.1140958175057463 -1.5154038443072633 C 1.0562825722171987 -1.3221605148996418 1.1270416983799645 -1.1282742749294177 1.2016290647109533 -0.9239163856440844 C 1.2510844726856734 -0.7883986319028424 1.3022250856199409 -0.6482441292555552 1.3177036444680459 -0.5019624941252898 C 1.3177815730210896 -0.5011929496639898 1.3178497605050012 -0.5004234052026959 1.3178887247815223 -0.49963437860313764 C 1.3202265813728034 -0.45835172762877363 1.285441223508372 -0.4390254464741816 1.1702043756964866 -0.3749486937348263 C 1.1547647811249027 -0.36636681183100217 1.1359742587724835 -0.35592438572328033 1.1171447721435432 -0.34516050433425693 Z M 3.19843134360042 -0.34517998647252135 C 3.1795921159023486 -0.35594386786154475 3.1608113346190585 -0.3663862939692666 3.145381481116607 -0.3749681758730907 C 3.0301251511664615 -0.43902544647418473 2.9953690165094207 -0.45835172762877363 2.9976873909624406 -0.49965386074140206 C 2.9976873909624406 -0.5004331462718281 2.997784801653744 -0.501192949663996 2.997872471275917 -0.5019624941252929 C 3.013341289054891 -0.6482733524629518 3.0644819019891605 -0.7884278551102359 3.1139470510330094 -0.9239650909897423 C 3.188514935225737 -1.1283034981368143 3.259283802457635 -1.3221799970379093 3.201460816099954 -1.5154038443072664 C 2.875300598408889 -1.3396262518503392 2.8965653523204153 -1.093186943921951 2.9210446590449495 -0.8098095018513276 C 2.934419146960903 -0.6551115829924488 2.9481832776420687 -0.4958451027114408 2.9007247888390673 -0.3451605043342658 Z" fill="#000000" transform="matrix(1,0,0,1,0,0)" fill-rule="nonzero"></path></g></g></g><defs><clipPath id="SvgjsClipPath1019"><path d=" M 0 -3.847873624359006 h 4.315527410398305 v 3.597873624359006 h -4.315527410398305 Z"></path></clipPath><clipPath id="SvgjsClipPath1008"><path d=" M 0 -3.847873624359006 L 4.315527410398305 -3.847873624359006 L 4.315527410398305 -0.25 L 0 -0.25 Z"></path></clipPath></defs></svg>